<svg xmlns="http://www.w3.org/2000/svg" xmlns:xlink="http://www.w3.org/1999/xlink" width="485.848" height="99.063" viewBox="0 0 485.848 99.063">
  <defs>
    <style>
      .cls-1 {
        fill: #e2ca44;
        fill-rule: evenodd;
        filter: url(#filter);
      }
    </style>
    <filter id="filter" x="545.812" y="798.875" width="485.848" height="99.063" filterUnits="userSpaceOnUse">
      <feFlood result="flood" flood-color="#78797c"/>
      <feComposite result="composite" operator="in" in2="SourceGraphic"/>
      <feBlend result="blend" in2="SourceGraphic"/>
    </filter>
  </defs>
  <path id="Nemusíte_mít_plán._Stačí_fantazie." data-name="Nemusíte mít plán.  Stačí fantazie." class="cls-1" d="M570.054,798.887v0.99h4.619V828.2l-18.862-29.31H545.8v0.99h4.619V836.39H545.8v0.99h10.173v-0.99h-4.564l-0.055-33.709,22.986,35.249h1.32V799.877h4.619v-0.99H570.054Zm26.732,38.053c-6.544,0-7.7-7.973-7.7-12.263v-1.045H609.1a12.067,12.067,0,0,0-12.318-12.207,13.254,13.254,0,1,0,0,26.5,12.422,12.422,0,0,0,11.328-6.819h-0.99C606.63,832.321,603.605,836.94,596.786,836.94Zm0-24.526c4.894,0,6.214,5.829,6.544,10.229H589.143C589.528,818.243,591.122,812.414,596.786,812.414Zm59.779,23.976V821.1c0-7.589-4.564-9.678-8.8-9.678-5.279,0-7.644,3.189-8.633,6.818-0.99-5.279-4.895-6.818-8.579-6.818-4.839,0-7.2,2.694-8.359,5.994v-5.445h-9.513v0.99h3.9V836.39h-3.9v0.99H626.1v-0.99h-3.9V822.643c0.055-3.245,1.54-10.229,7.314-10.229,4.015,0,4.234,4.125,4.234,7.2V836.39h-3.519v0.99h12.7v-0.99h-3.52V822.7c0-3.19,1.485-10.284,7.314-10.284,4.015,0,4.234,4.125,4.234,7.2V836.39h-3.9v0.99h13.473v-0.99h-3.96Zm32.949,0V811.974H680v0.935h3.9v13.748c-0.055,3.244-1.87,10.283-7.7,10.283-4.014,0-4.234-4.179-4.234-7.2V811.974h-9.513v0.935h3.849v15.343c0,7.588,4.619,9.678,8.854,9.678,5,0,7.533-2.915,8.743-6.324v5.774h9.513v-0.99h-3.9Zm17.108-15.4c-3.74-1.43-5.06-2.585-5.06-4.729,0-1.1.825-3.9,4.62-3.9,3.574,0,6.159,1.98,7.753,6.214h0.935l-2.309-6.6H709.1a8.67,8.67,0,0,0-3.134-.549c-4.51,0-8.029,2.749-8.029,6.708,0,3.3,1.265,5.444,7.149,8.029,4.4,1.98,6.819,3.519,6.819,6.049,0,2.475-1.87,4.729-5.884,4.729-3.575,0-6.819-2.2-8.634-7.259h-0.935l2.64,7.7h3.629a18.775,18.775,0,0,0,3.52.55c5.829,0,9.843-3.08,9.843-7.369C716.08,826.822,714.21,823.852,706.622,820.993Zm22.6,15.4V811.974h-9.568v0.99h3.9V836.39h-3.9v0.99h13.473v-0.99h-3.9Zm-2.749-36.9-2.915,8.523h0.825l6.434-8.468Zm27.058,30.189c-0.22,2.145-1.485,7.259-5.114,7.259-3.9,0-3.3-5.664-3.3-10.008V812.909H753.1v-0.935h-7.973v-6.763h-5.609v6.763h-3.905v0.935h3.905v15.4c0,7.2,3.794,9.623,7.973,9.623,5.5,0,6.489-6.159,6.819-8.249h-0.77Zm17.821,7.259c-6.544,0-7.7-7.973-7.7-12.263v-1.045h20.016a12.066,12.066,0,0,0-12.317-12.207,13.254,13.254,0,1,0,0,26.5,12.423,12.423,0,0,0,11.328-6.819h-0.99C781.2,832.321,778.174,836.94,771.356,836.94Zm0-24.526c4.894,0,6.213,5.829,6.543,10.229H763.712C764.1,818.243,765.692,812.414,771.356,812.414Zm74.353,23.976V821.1c0-7.589-4.564-9.678-8.8-9.678-5.279,0-7.644,3.189-8.634,6.818-0.99-5.279-4.894-6.818-8.578-6.818-4.839,0-7.2,2.694-8.359,5.994v-5.445h-9.513v0.99h3.9V836.39h-3.9v0.99h13.418v-0.99h-3.9V822.643c0.055-3.245,1.54-10.229,7.314-10.229,4.014,0,4.234,4.125,4.234,7.2V836.39h-3.519v0.99h12.7v-0.99h-3.52V822.7c0-3.19,1.485-10.284,7.314-10.284,4.014,0,4.234,4.125,4.234,7.2V836.39h-3.9v0.99h13.473v-0.99h-3.96Zm17.111,0V811.974h-9.568v0.99h3.9V836.39h-3.9v0.99h13.473v-0.99h-3.9Zm-2.749-36.9-2.915,8.523h0.825l6.434-8.468Zm27.058,30.189c-0.22,2.145-1.484,7.259-5.114,7.259-3.9,0-3.3-5.664-3.3-10.008V812.909h7.973v-0.935h-7.973v-6.763h-5.609v6.763h-3.9v0.935h3.9v15.4c0,7.2,3.794,9.623,7.973,9.623,5.5,0,6.489-6.159,6.819-8.249h-0.77Zm36.795-18.256a8.986,8.986,0,0,0-8.359,5.279v-4.73h-9.513v0.935h3.9v36.569h-3.9v0.99h13.417v-0.99h-3.9V832.651a9.075,9.075,0,0,0,8.359,5.279A13.254,13.254,0,1,0,923.924,811.425Zm0,25.515a8.3,8.3,0,0,1-8.359-8.193v-8.194a8.255,8.255,0,0,1,8.359-8.139c6.543,0,7.7,7.919,7.7,12.263C931.622,828.967,930.467,836.94,923.924,836.94Zm26.016-.55v-37.5h-9.513v0.99h3.9V836.39h-3.9v0.99h13.418v-0.99h-3.9Zm31.677,0V821.873c0.165-8.029-4.014-10.448-11.658-10.448a13.409,13.409,0,0,0-3.409.549h-3.464l-2.365,6.6h0.99c1.54-4.234,4.344-6.159,7.919-6.159,5.993,0,6.378,5,6.378,10.834v0.274c-1.154-2.034-3.409-4.124-7.643-4.124-5.169,0-10.943,2.64-10.943,9.294,0,6.6,5.774,9.238,10.943,9.238,4.234,0,6.489-2.09,7.643-4.124v3.574h9.514v-0.99h-3.905Zm-5.609-5.994a6.852,6.852,0,0,1-7.038,6.544c-4.455,0-6.269-4.179-6.269-8.248,0-4.125,1.814-8.3,6.269-8.3a6.852,6.852,0,0,1,7.038,6.544V830.4Zm-3.794-30.9-2.914,8.523h0.824l6.434-8.468Zm44.546,36.9V821.1c0-7.589-4.62-9.678-8.85-9.678a8.523,8.523,0,0,0-8.69,6.268v-5.719h-9.569v0.99h3.905V836.39h-3.905v0.99h13.469v-0.99h-3.9V822.643c0-3.19,1.81-10.229,7.64-10.229,4.02,0,4.24,4.125,4.24,7.2V836.39h-3.91v0.99h13.48v-0.99h-3.91ZM1028.21,831a3.465,3.465,0,1,0,3.46,3.465A3.439,3.439,0,0,0,1028.21,831Zm-397.6,42.678c-6.708-2.529-8.578-5.059-8.578-8.083,0-2.475,2.255-6.269,7.919-6.269,5.334,0,9.238,3.244,11.6,9.623h0.934l-3.519-10.063H634.24a17.733,17.733,0,0,0-4.619-.55c-6.709,0-11.988,3.794-11.988,9.458,0,5.554,3.3,8.854,10.668,12.043,6.6,2.915,11.273,4.179,11.273,9.568s-3.849,7.534-9.843,7.534c-5.334,0-10.174-3.739-12.868-11.383h-0.99l4.179,11.823h5.059a24.053,24.053,0,0,0,5,.55c8.688,0,14.682-4.509,14.682-11C644.8,881.763,641.993,878.023,630.61,873.679Zm35.145,16c-0.22,2.145-1.485,7.259-5.114,7.259-3.9,0-3.3-5.664-3.3-10.008V872.909h7.974v-0.935h-7.974v-6.763h-5.609v6.763h-3.9v0.935h3.9v15.4c0,7.2,3.794,9.623,7.974,9.623,5.5,0,6.489-6.159,6.818-8.249h-0.769ZM694.3,896.39V881.873c0.165-8.029-4.014-10.448-11.658-10.448a13.4,13.4,0,0,0-3.409.549h-3.465l-2.364,6.6h0.99c1.539-4.234,4.344-6.159,7.918-6.159,5.994,0,6.379,5,6.379,10.834v0.274c-1.155-2.034-3.409-4.124-7.644-4.124-5.169,0-10.943,2.64-10.943,9.294,0,6.6,5.774,9.238,10.943,9.238,4.235,0,6.489-2.09,7.644-4.124v3.574H698.2v-0.99h-3.9Zm-5.609-5.994a6.853,6.853,0,0,1-7.039,6.544c-4.454,0-6.269-4.179-6.269-8.248,0-4.125,1.815-8.3,6.269-8.3a6.853,6.853,0,0,1,7.039,6.544V890.4Zm35.144-.715c-1.814,5.059-5.059,7.259-8.578,7.259-6.6,0-7.7-7.973-7.7-12.263,0-4.344,1.1-12.263,7.644-12.263,3.574,0,6.379,1.925,7.973,6.159h0.935l-2.364-6.6h-3.41a7.719,7.719,0,0,0-3.134-.549,13.254,13.254,0,1,0,.055,26.5,9.537,9.537,0,0,0,3.079-.55h3.685l2.749-7.7h-0.935Zm-3.409-30.024-7.149,4.179-7.094-4.179-0.385.385,7.479,7.808,7.534-7.808Zm18.041,36.733V871.974H728.9v0.99h3.9V896.39h-3.9v0.99h13.472v-0.99h-3.9Zm-2.75-36.9-2.914,8.523h0.825l6.434-8.468Zm37.784-1.155c-8.8,0-9.623,7.369-9.623,12.648v0.989h-3.9v0.99h3.9V896.39h-3.9v0.99h13.418v-0.99h-3.9V872.964h8.138v-0.99H769.43c-0.55-5.279-1.375-12.482,4.069-12.647,2.64,0,5.389,1.814,4.124,6.928l0.99,0.385,2.2-6.214A17.618,17.618,0,0,0,773.5,858.337Zm30.139,38.053V881.873c0.165-8.029-4.015-10.448-11.658-10.448a13.41,13.41,0,0,0-3.41.549h-3.464l-2.365,6.6h0.99c1.54-4.234,4.344-6.159,7.919-6.159,5.994,0,6.379,5,6.379,10.834v0.274c-1.155-2.034-3.41-4.124-7.644-4.124-5.169,0-10.943,2.64-10.943,9.294,0,6.6,5.774,9.238,10.943,9.238,4.234,0,6.489-2.09,7.644-4.124v3.574h9.513v-0.99h-3.9Zm-5.609-5.994a6.853,6.853,0,0,1-7.039,6.544c-4.454,0-6.269-4.179-6.269-8.248,0-4.125,1.815-8.3,6.269-8.3a6.853,6.853,0,0,1,7.039,6.544V890.4Zm40.2,5.994V881.1c0-7.589-4.619-9.678-8.853-9.678a8.53,8.53,0,0,0-8.689,6.268v-5.719h-9.568v0.99h3.9V896.39h-3.9v0.99h13.472v-0.99h-3.9V882.643c0-3.19,1.815-10.229,7.644-10.229,4.014,0,4.234,4.125,4.234,7.2V896.39h-3.9v0.99h13.472v-0.99h-3.9Zm24.312-6.709c-0.22,2.145-1.485,7.259-5.114,7.259-3.9,0-3.3-5.664-3.3-10.008V872.909H862.1v-0.935h-7.973v-6.763h-5.609v6.763h-3.905v0.935h3.905v15.4c0,7.2,3.794,9.623,7.973,9.623,5.5,0,6.489-6.159,6.819-8.249h-0.77Zm28.544,6.709V881.873c0.165-8.029-4.015-10.448-11.658-10.448a13.41,13.41,0,0,0-3.41.549h-3.464l-2.365,6.6h0.99c1.54-4.234,4.344-6.159,7.919-6.159,5.994,0,6.379,5,6.379,10.834v0.274c-1.155-2.034-3.41-4.124-7.644-4.124-5.169,0-10.943,2.64-10.943,9.294,0,6.6,5.774,9.238,10.943,9.238,4.234,0,6.489-2.09,7.644-4.124v3.574h9.513v-0.99h-3.9Zm-5.609-5.994a6.853,6.853,0,0,1-7.039,6.544c-4.454,0-6.269-4.179-6.269-8.248,0-4.125,1.815-8.3,6.269-8.3a6.853,6.853,0,0,1,7.039,6.544V890.4Zm32.339-.715c-1.594,4.565-3.849,6.709-7.808,6.709h-5.334l13.307-24.416H900.936l-2.2,6.6h0.935c1.649-4.564,4.069-5.664,8.083-5.664h3.575L898.022,897.38h18.532l2.2-7.7h-0.935ZM931.9,896.39V871.974h-9.568v0.99h3.9V896.39h-3.9v0.99H935.8v-0.99h-3.9Zm-2.86-28.65A3.272,3.272,0,1,0,925.8,864.5,3.229,3.229,0,0,0,929.04,867.74Zm22.715,29.2c-6.544,0-7.7-7.973-7.7-12.263v-1.045h20.017a12.067,12.067,0,0,0-12.318-12.207,13.254,13.254,0,1,0,0,26.5,12.422,12.422,0,0,0,11.328-6.819h-0.99C961.6,892.321,958.574,896.94,951.755,896.94Zm0-24.526c4.894,0,6.214,5.829,6.544,10.229H944.111C944.5,878.243,946.091,872.414,951.755,872.414ZM971.611,891a3.465,3.465,0,1,0,3.464,3.465A3.439,3.439,0,0,0,971.611,891Z" transform="translate(-545.812 -798.875)"/>
</svg>
